# Blender v2.70 (sub 0) OBJ File: ''
# www.blender.org
mtllib stone1.mtl
o Stone_1_LOD1
v -0.313291 0.276800 0.487491
v -0.192516 0.551477 0.299561
v -0.287871 0.495479 0.131467
v 0.000000 0.764093 0.000000
v -0.165158 0.557499 -0.075425
v -0.171241 0.534119 0.024621
v 0.241640 0.679906 0.376000
v 0.070049 0.740604 0.238563
v 0.000000 0.623172 0.406812
v -0.475510 -0.079923 0.217158
v -0.302422 -0.506380 0.470577
v 0.000000 -0.093242 0.619093
v 0.000000 -0.610230 -0.000000
v 0.259695 -0.540877 -0.118599
v 0.288333 -0.552168 0.041456
v -0.248922 0.513714 -0.215692
v -0.107521 0.587597 -0.366184
v -0.190004 0.318484 -0.647094
v -0.539292 0.261588 -0.077538
v 0.635093 -0.096356 -0.091313
v 0.504752 0.266004 0.230512
v 0.324506 -0.090633 0.504941
v 0.449763 -0.441480 0.205400
v 0.215809 0.709518 -0.098556
v 0.417253 0.643994 -0.059992
v 0.259077 0.532706 -0.224491
v -0.067152 0.712538 0.228700
v -0.147447 0.594451 0.127764
v -0.291794 0.464842 -0.041954
v -0.427656 -0.417189 0.195304
v -0.413220 -0.364542 -0.059412
v 0.189659 0.746938 0.164341
v -0.211200 -0.437140 -0.096452
v -0.255132 -0.284699 -0.221073
v 0.403022 0.674407 0.184054
v 0.304868 0.269958 0.474384
v 0.392310 -0.466124 -0.339938
v 0.150984 -0.528760 -0.234935
v 0.250092 0.751604 0.035958
v 0.000000 -0.409998 0.462947
v 0.174245 -0.093156 -0.593423
v 0.136209 -0.430510 -0.463886
v -0.120558 -0.374985 -0.410584
v 0.114762 0.641327 -0.178573
v 0.000000 0.658923 -0.218716
v -0.109973 0.617145 -0.171122
v -0.242947 -0.610869 0.210515
v -0.093962 -0.634317 0.320006
v 0.393480 0.250966 -0.340952
v 0.088666 0.493003 -0.301969
v -0.519409 -0.102667 -0.450070
v 0.229279 -0.371157 0.356765
v 0.000000 -0.519414 -0.274464
v 0.478287 -0.430246 -0.068767
v 0.088870 -0.599146 0.302663
v 0.245775 -0.618151 0.212966
v -0.129551 -0.451620 -0.201585
v -0.272748 -0.521531 0.039215
vt 0.349762 0.448068
vt 0.219474 0.483657
vt 0.272824 0.530461
vt 0.132912 0.624147
vt 0.163821 0.532598
vt 0.117581 0.520651
vt 0.406816 0.669387
vt 0.318937 0.597213
vt 0.238605 0.638278
vt 0.480627 0.431783
vt 0.470152 0.297218
vt 0.852470 0.446931
vt 0.752760 0.500728
vt 0.777996 0.530957
vt 0.066849 0.437846
vt 0.723072 0.912766
vt 0.578588 0.916382
vt 0.205128 0.334259
vt 0.670957 0.509450
vt 0.544670 0.497021
vt 0.534375 0.624684
vt 0.490958 0.793939
vt 0.553727 0.779959
vt 0.519717 0.738561
vt 0.199683 0.555385
vt 0.230548 0.591807
vt 0.154941 0.452584
vt 0.415757 0.249130
vt 0.372568 0.186379
vt 0.345365 0.315568
vt 0.384344 0.747864
vt 0.431556 0.749762
vt 0.438028 0.133936
vt 0.341066 0.089510
vt 0.476155 0.570272
vt 0.752565 0.607964
vt 0.811385 0.555793
vt 0.466401 0.769930
vt 0.548209 0.340424
vt 0.757782 0.742519
vt 0.910480 0.679394
vt 0.813645 0.646694
vt 0.424390 0.843318
vt 0.513571 0.863100
vt 0.507909 0.821629
vt 0.068284 0.536523
vt 0.528725 0.243536
vt 0.488171 0.215924
vt 0.629458 0.734114
vt 0.576227 0.834849
vt 0.195896 0.136734
vt 0.474808 0.701720
vt 0.642836 0.623259
vt 0.638377 0.433269
vt 0.859810 0.575318
vt 0.492897 0.908111
vt 0.706665 0.564056
vt 0.555815 0.128808
vt 0.584999 0.249578
vt 0.733119 0.459257
vt 0.733326 0.408639
vt 0.922292 0.567334
vt 0.444427 0.071635
vt 0.458476 0.182186
vn 0.604266 -0.312845 -0.732749
vn 0.673696 -0.736930 -0.054964
vn 0.677511 -0.656484 -0.331614
vn 0.336039 -0.925474 0.174718
vn 0.646596 -0.759239 0.073611
vn 0.675893 -0.731956 -0.085818
vn -0.325999 -0.643178 -0.692801
vn 0.207648 -0.588794 -0.781121
vn 0.083499 -0.945647 -0.314249
vn -0.023743 0.084017 -0.996155
vn 0.486099 0.535112 -0.690878
vn 0.103458 0.962676 0.250008
vn -0.425306 0.893918 0.141331
vn -0.286782 0.945341 0.155034
vn 0.684530 -0.709922 0.165441
vn 0.247536 -0.388806 0.887417
vn 0.139134 -0.819880 0.555315
vn 0.921934 -0.382885 0.058443
vn -0.741905 0.526566 -0.415021
vn -0.593188 0.166723 -0.787591
vn -0.906461 -0.165288 -0.388501
vn -0.187139 -0.804315 0.563921
vn -0.309915 -0.544176 0.779595
vn -0.718619 -0.599658 0.352062
vn 0.723716 -0.680105 0.116855
vn 0.534837 -0.812220 -0.232826
vn 0.585833 -0.810327 0.011872
vn 0.902310 0.427473 -0.055422
vn 0.735466 0.599261 0.316080
vn 0.953612 0.060244 -0.294900
vn -0.151585 -0.974578 -0.164830
vn 0.463210 0.707724 0.533372
vn 0.483444 0.788049 0.381054
vn -0.493027 -0.217200 -0.842433
vn -0.577197 0.628803 0.520951
vn -0.086795 0.944823 0.315806
vn -0.265114 -0.958464 0.104892
vn -0.275704 0.494308 -0.824366
vn -0.302927 0.109043 0.946715
vn 0.448225 0.637593 0.626514
vn -0.012543 0.638447 0.769524
vn -0.040010 -0.851619 0.522599
vn -0.202795 -0.705679 0.678854
vn 0.588977 -0.799127 0.120212
vn -0.028016 0.921873 -0.386425
vn 0.454237 0.888882 0.059236
vn -0.658986 -0.307077 0.686575
vn -0.378948 -0.581103 0.720176
vn 0.773675 0.266518 0.574755
vn -0.735527 -0.624561 -0.262490
vn -0.987243 0.057405 0.148412
vn -0.405194 0.493973 -0.769280
vn 0.274514 0.881497 0.384136
vn -0.756676 0.650868 0.061251
vn -0.245735 0.811762 -0.529740
vn -0.382580 0.876339 -0.292642
vn 0.622791 0.716178 0.314920
vn 0.490890 0.766625 0.413892
usemtl Stone_1_LOD1
s 1
f 1/1/1 3/2/2 2/3/3
f 4/4/4 6/5/5 5/6/6
f 7/7/7 9/8/8 8/9/9
f 1/1/1 12/10/10 11/11/11
f 13/12/12 15/13/13 14/14/14
f 16/15/15 18/16/16 17/17/17
f 19/18/18 3/2/2 1/1/1
f 23/19/19 22/20/20 21/21/21
f 24/22/22 26/23/23 25/24/24
f 2/3/3 28/25/25 27/26/26
f 5/6/6 29/27/27 16/15/15
f 9/8/8 27/26/26 8/9/9
f 30/28/28 31/29/29 10/30/30
f 7/7/7 8/31/9 32/32/31
f 33/33/32 34/34/33 31/29/29
f 21/21/21 36/35/34 7/7/7
f 37/36/35 38/37/36 14/14/14
f 25/24/24 39/38/37 24/22/22
f 40/39/38 11/11/11 12/10/10
f 41/40/39 43/41/40 42/42/41
f 6/5/5 3/2/2 29/27/27
f 4/43/4 45/44/42 44/45/43
f 4/4/4 5/6/6 46/46/44
f 11/11/11 48/47/45 47/48/46
f 36/35/34 9/8/8 7/7/7
f 4/4/4 8/9/9 27/26/26
f 5/6/6 16/15/15 46/46/44
f 2/3/3 9/8/8 1/1/1
f 6/5/5 29/27/27 5/6/6
f 4/4/4 28/25/25 6/5/5
f 49/49/47 25/24/24 26/23/23
f 3/2/2 6/5/5 28/25/25
f 4/4/4 27/26/26 28/25/25
f 22/20/20 12/10/10 36/35/34
f 4/43/4 32/32/31 8/31/9
f 26/23/23 50/50/48 49/49/47
f 9/8/8 36/35/34 12/10/10
f 4/43/4 24/22/22 39/38/37
f 10/30/30 11/11/11 30/28/28
f 51/51/49 31/29/29 34/34/33
f 49/49/47 41/40/39 37/36/35
f 4/43/4 39/38/37 32/32/31
f 39/38/37 35/52/50 32/32/31
f 43/41/40 41/40/39 18/16/16
f 20/53/51 21/21/21 25/24/24
f 4/43/4 44/45/43 24/22/22
f 44/45/43 45/44/42 50/50/48
f 44/45/43 26/23/23 24/22/22
f 44/45/43 50/50/48 26/23/23
f 52/54/52 22/20/20 23/19/19
f 53/55/53 42/42/41 43/41/40
f 16/15/15 17/17/17 46/56/44
f 23/19/19 20/53/51 54/57/54
f 2/3/3 3/2/2 28/25/25
f 54/57/54 20/53/51 37/36/35
f 13/58/12 48/47/45 55/59/55
f 9/8/8 2/3/3 27/26/26
f 23/19/19 15/13/13 56/60/56
f 13/12/12 55/61/55 56/60/56
f 32/32/31 35/52/50 7/7/7
f 25/24/24 35/52/50 39/38/37
f 29/27/27 3/2/2 19/18/18
f 21/21/21 22/20/20 36/35/34
f 40/39/38 52/54/52 55/61/55
f 13/12/12 53/55/53 57/62/57
f 34/34/33 33/33/32 57/63/57
f 47/48/46 30/28/28 11/11/11
f 40/39/38 12/10/10 22/20/20
f 13/58/12 58/64/58 47/48/46
f 17/17/17 18/16/16 50/50/48
f 56/60/56 52/54/52 23/19/19
f 13/12/12 38/37/36 53/55/53
f 31/29/29 30/28/28 58/64/58
f 19/18/18 16/15/15 29/27/27
f 54/57/54 37/36/35 14/14/14
f 38/37/36 37/36/35 42/42/41
f 10/30/30 31/29/29 51/51/49
f 53/55/53 43/41/40 57/62/57
f 57/63/57 43/41/40 34/34/33
f 13/58/12 57/63/57 33/33/32
f 48/47/45 11/11/11 40/39/38
f 31/29/29 58/64/58 33/33/32
f 34/34/33 43/41/40 51/51/49
f 58/64/58 30/28/28 47/48/46
f 13/58/12 47/48/46 48/47/45
f 25/24/24 21/21/21 35/52/50
f 55/59/55 48/47/45 40/39/38
f 15/13/13 23/19/19 54/57/54
f 55/61/55 52/54/52 56/60/56
f 13/12/12 56/60/56 15/13/13
f 15/13/13 54/57/54 14/14/14
f 13/12/12 14/14/14 38/37/36
f 53/55/53 38/37/36 42/42/41
f 45/44/42 17/17/17 50/50/48
f 13/58/12 33/33/32 58/64/58
f 4/43/4 46/56/44 45/44/42
f 18/16/16 41/40/39 49/49/47
f 16/15/15 19/18/18 51/51/49
f 45/44/42 46/56/44 17/17/17
f 42/42/41 37/36/35 41/40/39
f 10/30/30 1/1/1 11/11/11
f 10/30/30 19/18/18 1/1/1
f 20/53/51 23/19/19 21/21/21
f 35/52/50 21/21/21 7/7/7
f 1/1/1 9/8/8 12/10/10
f 20/53/51 49/49/47 37/36/35
f 51/51/49 43/41/40 18/16/16
f 49/49/47 20/53/51 25/24/24
f 52/54/52 40/39/38 22/20/20
f 19/18/18 10/30/30 51/51/49
f 50/50/48 18/16/16 49/49/47
f 18/16/16 16/15/15 51/51/49
