# Blender v2.70 (sub 0) OBJ File: ''
# www.blender.org
mtllib tresure_chest.mtl
o treasure_chest
v -3.985515 5.326285 2.103310
v -3.985515 5.824025 1.289151
v -4.949752 5.824025 1.289151
v -4.949752 5.326285 2.103310
v -3.985515 -0.000000 2.608305
v -3.985515 4.436727 2.603931
v -4.949752 4.436727 2.603931
v -4.949752 -0.000000 2.608305
v 3.985515 0.000000 -2.608305
v 3.985515 4.436728 -2.603929
v 4.949752 4.436728 -2.603929
v 4.949752 0.000000 -2.608305
v 4.949752 5.824025 -1.289149
v 3.985515 5.824025 -1.289149
v 3.985515 6.046723 -0.419302
v 4.949752 6.046723 -0.419302
v 4.949752 6.046723 0.419304
v 3.985515 6.046723 0.419304
v 3.985515 5.824025 1.289151
v 4.949752 5.824025 1.289151
v 4.949752 5.326286 -2.103308
v 3.985515 5.326286 -2.103308
v 4.949752 5.326285 2.103310
v 3.985515 5.326285 2.103310
v 4.949752 -0.000000 2.608305
v 4.949752 4.436727 2.603931
v 3.985515 4.436727 2.603931
v 3.985515 -0.000000 2.608305
v -4.949752 0.000000 -2.608305
v -4.949752 4.436728 -2.603929
v -3.985515 4.436728 -2.603929
v -3.985515 0.000000 -2.608305
v -4.949752 5.824025 -1.289149
v -4.949752 6.046723 -0.419302
v -3.985515 6.046723 -0.419302
v -3.985515 5.824025 -1.289149
v -4.949752 6.046723 0.419304
v -3.985515 6.046723 0.419304
v -4.949752 5.326286 -2.103308
v -3.985515 5.326286 -2.103308
v -1.991985 5.233541 2.007426
v -1.991985 5.701070 1.237426
v -3.985515 5.701070 1.237426
v -3.985515 5.233541 2.007426
v -1.991985 -0.000000 2.474850
v -1.991985 4.402913 2.474851
v -3.985515 4.402913 2.474851
v -3.985515 -0.000000 2.474850
v 1.991985 0.000000 -2.474850
v 1.991985 4.402914 -2.474849
v 3.985515 4.402914 -2.474849
v 3.985515 0.000000 -2.474850
v 1.991985 5.701070 -1.237424
v 1.991985 5.914350 -0.402678
v 3.985515 5.914350 -0.402678
v 3.985515 5.701070 -1.237424
v 1.991985 5.914350 0.402680
v 1.991985 5.701070 1.237426
v 3.985515 5.701070 1.237426
v 3.985515 5.914350 0.402680
v 1.991985 5.233542 -2.007424
v 3.985515 5.233542 -2.007424
v 3.985515 5.233541 2.007426
v 1.991985 5.233541 2.007426
v 3.985515 -0.000000 2.474850
v 3.985515 4.402913 2.474851
v 1.991985 4.402913 2.474851
v 1.991985 -0.000000 2.474850
v -3.985515 0.000000 -2.474850
v -3.985515 4.402914 -2.474849
v -1.991985 4.402914 -2.474849
v -1.991985 0.000000 -2.474850
v -3.985515 5.701070 -1.237424
v -3.985515 5.914350 -0.402678
v -1.991985 5.914350 -0.402678
v -1.991985 5.701070 -1.237424
v -3.985515 5.914350 0.402680
v -1.991985 5.914350 0.402680
v -3.985515 5.233542 -2.007424
v -1.991985 5.233542 -2.007424
v -1.355851 5.233541 2.007426
v 1.355851 5.233541 2.007426
v 1.355851 5.701070 1.237426
v -1.355851 5.701070 1.237426
v -1.355851 -0.000000 2.474850
v 1.355851 -0.000000 2.474850
v 1.355851 4.402913 2.474851
v -1.355851 4.402913 2.474851
v 1.355851 0.000000 -2.474850
v -1.355851 0.000000 -2.474850
v -1.355851 4.402914 -2.474849
v 1.355851 4.402914 -2.474849
v 1.355851 5.701070 -1.237424
v -1.355851 5.701070 -1.237424
v -1.355851 5.914350 -0.402678
v 1.355851 5.914350 -0.402678
v 1.355851 5.914350 0.402680
v -1.355851 5.914350 0.402680
v 1.355851 5.233542 -2.007424
v -1.355851 5.233542 -2.007424
v -1.991985 5.273891 2.049115
v -1.355851 5.273891 2.049115
v -1.355851 5.754492 1.259917
v -1.991985 5.754492 1.259917
v -1.991985 -0.000000 2.532854
v -1.355851 -0.000000 2.532854
v -1.355851 4.417632 2.531002
v -1.991985 4.417632 2.531002
v 1.991985 0.000000 -2.532854
v 1.355851 0.000000 -2.532854
v 1.355851 4.417633 -2.531000
v 1.991985 4.417633 -2.531000
v 1.991985 5.754492 -1.259915
v 1.355851 5.754492 -1.259915
v 1.355851 5.971890 -0.409884
v 1.991985 5.971890 -0.409884
v 1.991985 5.971890 0.409886
v 1.355851 5.971890 0.409886
v 1.355851 5.754492 1.259917
v 1.991985 5.754492 1.259917
v 1.991985 5.273892 -2.049113
v 1.355851 5.273892 -2.049113
v 1.355851 5.273891 2.049115
v 1.991985 5.273891 2.049115
v 1.355851 -0.000000 2.532854
v 1.991985 -0.000000 2.532854
v 1.991985 4.417632 2.531002
v 1.355851 4.417632 2.531002
v -1.355851 0.000000 -2.532854
v -1.991985 0.000000 -2.532854
v -1.991985 4.417633 -2.531000
v -1.355851 4.417633 -2.531000
v -1.355851 5.754492 -1.259915
v -1.991985 5.754492 -1.259915
v -1.991985 5.971890 -0.409884
v -1.355851 5.971890 -0.409884
v -1.355851 5.971890 0.409886
v -1.991985 5.971890 0.409886
v -1.355851 5.273892 -2.049113
v -1.991985 5.273892 -2.049113
v -4.949752 5.437558 -1.125895
v -4.949752 5.028703 -1.794762
v -4.949752 4.327823 -2.189155
v -4.949752 5.437558 1.125897
v -4.949752 0.000515 -2.193016
v -4.949752 0.000514 2.193016
v -4.949752 4.327822 2.189157
v -4.949752 5.028702 1.794764
v -4.949752 5.631846 -0.367063
v -4.949752 5.631846 0.367013
v 4.949752 5.437558 1.125897
v 4.949752 5.028702 1.794764
v 4.949752 4.327822 2.189157
v 4.949752 5.437558 -1.125895
v 4.949752 0.000514 2.193016
v 4.949752 0.000515 -2.193016
v 4.949752 4.327823 -2.189155
v 4.949752 5.028703 -1.794762
v 4.949752 5.631846 0.367013
v 4.949752 5.631846 -0.367063
v 0.540302 3.786697 -2.462755
v 0.458264 3.480519 -2.462755
v 0.458264 3.480519 -2.544845
v 0.540302 3.786697 -2.544845
v 0.234124 3.256431 -2.462755
v 0.234124 3.256431 -2.544845
v -0.072054 3.174392 -2.462755
v -0.072054 3.174392 -2.544845
v -0.378181 3.256431 -2.462755
v -0.378181 3.256431 -2.544845
v -0.602320 3.480519 -2.462755
v -0.602320 3.480519 -2.544845
v -0.684359 3.786697 -2.462755
v -0.684359 3.786697 -2.544845
v -0.602320 4.092875 -2.462755
v -0.602320 4.092875 -2.544845
v -0.378181 4.317015 -2.462755
v -0.378181 4.317015 -2.544845
v -0.072054 4.399054 -2.462755
v -0.072054 4.399054 -2.544845
v 0.234124 4.317015 -2.462755
v 0.234124 4.317015 -2.544845
v 0.458264 4.092875 -2.462755
v 0.458264 4.092875 -2.544845
vt 0.291500 0.810800
vt 0.291500 0.998400
vt 0.169400 0.998400
vt 0.169400 0.810800
vt 0.999800 0.810800
vt 0.999800 0.998400
vt 0.423400 0.998400
vt 0.423400 0.810800
vt 1.000000 0.810900
vt 1.000000 0.998900
vt 0.420700 0.998800
vt 0.420700 0.810900
vt 0.171500 0.998800
vt 0.056300 0.998800
vt 0.056300 0.810900
vt 0.171500 0.810900
vt -0.052100 0.998800
vt -0.168600 0.998800
vt -0.168600 0.810900
vt -0.052100 0.810900
vt 0.291400 0.998800
vt 0.291400 0.810900
vt -0.290700 0.998800
vt -0.290700 0.810800
vt -0.999000 0.998800
vt -0.999000 0.810800
vt -0.422600 0.810800
vt -0.422600 0.998800
vt -0.999100 0.998400
vt -0.999100 0.810700
vt -0.419900 0.810700
vt -0.419900 0.998400
vt -0.170700 0.998400
vt -0.170700 0.810700
vt -0.055500 0.810800
vt -0.055500 0.998400
vt 0.052900 0.998400
vt 0.052900 0.810800
vt -0.290600 0.998400
vt -0.290600 0.810700
vt 1.483700 0.490600
vt 1.621700 0.490600
vt 1.621700 0.575000
vt 1.483700 0.575000
vt 1.483700 0.001000
vt 1.621700 0.001000
vt 1.621700 0.399400
vt 1.483700 0.399400
vt 1.483700 0.001100
vt 1.621700 0.001100
vt 1.621700 0.401500
vt 1.483700 0.401500
vt 1.483700 0.573700
vt 1.621700 0.573700
vt 1.621700 0.653300
vt 1.483700 0.653300
vt 1.207900 0.655500
vt 1.069900 0.655500
vt 1.069900 0.575000
vt 1.207900 0.575000
vt 1.483700 0.490800
vt 1.621700 0.490800
vt 1.483700 0.593000
vt 1.621700 0.593000
vt 1.621700 0.667900
vt 1.483700 0.667900
vt 1.069900 0.490600
vt 1.207900 0.490600
vt 1.069900 0.001000
vt 1.207900 0.001000
vt 1.207900 0.399400
vt 1.069900 0.399400
vt 1.069900 0.001100
vt 1.207900 0.001100
vt 1.207900 0.401500
vt 1.069900 0.401500
vt 1.069900 0.573700
vt 1.207900 0.573700
vt 1.207900 0.653300
vt 1.069900 0.653300
vt 1.621700 0.655500
vt 1.483700 0.655500
vt 1.069900 0.490800
vt 1.207900 0.490800
vt 1.069900 0.592900
vt 1.207900 0.592900
vt 1.207900 0.667900
vt 1.069900 0.667900
vt 1.439700 0.490600
vt 1.439700 0.575000
vt 1.251900 0.575000
vt 1.251900 0.490600
vt 1.439700 0.001000
vt 1.439700 0.399400
vt 1.251900 0.399400
vt 1.251900 0.001000
vt 1.439700 0.001100
vt 1.439700 0.401500
vt 1.251900 0.401500
vt 1.251900 0.001100
vt 1.439700 0.573700
vt 1.439700 0.653300
vt 1.251900 0.653300
vt 1.251900 0.573700
vt 1.251900 0.655500
vt 1.439700 0.655500
vt 1.439700 0.490800
vt 1.251900 0.490800
vt 1.439700 0.593000
vt 1.439700 0.667900
vt 1.251900 0.667900
vt 1.251900 0.592900
vt 0.354500 0.687200
vt 0.415500 0.687200
vt 0.415500 0.780400
vt 0.354500 0.780400
vt 0.000400 0.687200
vt 0.288500 0.687200
vt 0.288500 0.780400
vt 0.000400 0.780400
vt 0.999600 0.780500
vt 0.710000 0.780500
vt 0.710000 0.687500
vt 0.999600 0.687500
vt 0.585500 0.780500
vt 0.527900 0.780500
vt 0.527900 0.687500
vt 0.585500 0.687500
vt 0.473700 0.780400
vt 0.415500 0.687500
vt 0.473700 0.687500
vt 0.645400 0.780500
vt 0.645500 0.687500
vt 0.354500 0.687500
vt 0.000500 0.687500
vt 0.288600 0.687500
vt 0.288600 0.780400
vt 0.000500 0.780400
vt 0.999600 0.780400
vt 0.710000 0.780400
vt 0.710000 0.687200
vt 0.999600 0.687200
vt 0.585500 0.780400
vt 0.527900 0.780400
vt 0.527900 0.687200
vt 0.585500 0.687200
vt 0.473700 0.687200
vt 0.645400 0.780400
vt 0.645400 0.687200
vt 0.029500 0.126800
vt 0.029500 0.406700
vt 0.164600 -0.005400
vt 0.079300 0.043600
vt 0.691400 0.539300
vt 0.691400 -0.005800
vt 0.079300 0.489800
vt 0.164600 0.538800
vt 0.005800 0.221100
vt 0.005800 0.312300
vt 0.005900 0.312300
vt -0.419900 0.808100
vt -0.999100 0.808100
vt -0.290600 0.808100
vt -0.170700 0.808100
vt -0.055500 0.808100
vt 0.052900 0.808100
vt 0.169400 0.808100
vt 0.291500 0.808100
vt 0.423400 0.808100
vt 0.999800 0.808100
vt -0.422600 0.808600
vt -0.999000 0.808600
vt -0.290700 0.808600
vt -0.168600 0.808600
vt -0.052100 0.808600
vt 0.056300 0.808600
vt 0.171500 0.808600
vt 0.291400 0.808600
vt 0.420700 0.808600
vt 1.000000 0.808600
vt 0.830900 0.334900
vt 0.809800 0.334900
vt 0.809800 0.345000
vt 0.830900 0.345000
vt 0.809800 0.355100
vt 0.830900 0.355100
vt 0.809800 0.365200
vt 0.830900 0.365200
vt 0.830900 0.244200
vt 0.809800 0.244200
vt 0.809800 0.254300
vt 0.830900 0.254300
vt 0.809800 0.264400
vt 0.830900 0.264400
vt 0.809800 0.274500
vt 0.830900 0.274500
vt 0.809800 0.284600
vt 0.830900 0.284600
vt 0.809800 0.294600
vt 0.830900 0.294600
vt 0.809800 0.304700
vt 0.830900 0.304700
vt 0.809800 0.314800
vt 0.830900 0.314800
vt 0.809800 0.324900
vt 0.830900 0.324900
vt 0.728800 0.164700
vt 0.728800 0.371400
vt 0.820100 0.061400
vt 0.767400 0.089100
vt 0.911300 0.371400
vt 0.911300 0.164700
vt 0.872800 0.089100
vt 0.925400 0.268100
vt 0.820100 0.474700
vt 0.872800 0.447000
vt 0.767400 0.447000
vt 0.714700 0.268100
vn 0.000000 -0.853190 -0.521601
vn 0.000000 -0.000986 -1.000000
vn 0.000000 -0.000986 1.000000
vn 0.000000 -0.968754 0.248021
vn 0.000000 -0.968755 -0.248021
vn 0.000000 -0.853190 0.521600
vn 0.000000 -0.490443 -0.871473
vn 0.000000 -0.490443 0.871473
vn 0.000000 -1.000000 0.000000
vn 0.000000 -0.854774 -0.519001
vn 0.000000 0.000000 -1.000000
vn 0.000000 -0.000000 1.000000
vn 0.000000 -0.968875 0.247550
vn 0.000000 -0.968875 -0.247550
vn 0.000000 -0.854774 0.519000
vn 0.000000 -0.490418 -0.871487
vn 0.000000 -0.490418 0.871487
vn 0.000000 -0.490417 -0.871488
vn 0.000000 -0.854093 -0.520120
vn 0.000000 -0.000419 -1.000000
vn 0.000000 -0.000420 1.000000
vn 0.000000 -0.968817 0.247778
vn 0.000000 -0.968817 -0.247778
vn 0.000000 -0.854093 0.520120
vn 0.000000 -0.490448 -0.871471
vn 0.000000 -0.490448 0.871470
vn 1.000000 -0.000000 0.000000
vn -1.000000 0.000000 0.000000
vn -1.000000 0.000001 0.000000
vn -1.000000 -0.000001 0.000000
vn -1.000000 0.000002 0.000000
vn 1.000000 0.000002 0.000000
vn 1.000000 -0.000001 0.000000
vn 1.000000 0.000001 0.000000
vn 1.000000 -0.000002 0.000000
vn -1.000000 -0.000002 0.000000
vn -0.000130 1.000000 -0.000938
vn -0.000488 1.000000 0.000107
vn -0.000007 1.000000 0.000109
vn 0.000000 1.000000 0.000000
vn -0.000076 1.000000 0.000052
vn 0.000130 1.000000 0.000938
vn 0.000000 0.999998 0.001826
vn 0.000082 1.000000 0.000000
vn 0.000488 1.000000 -0.000107
vn 0.000007 1.000000 -0.000109
vn 0.000000 1.000000 -0.000110
vn 0.000000 0.999998 -0.001826
vn -0.965927 0.258814 0.000000
vn -0.707025 0.707189 0.000000
vn -0.258814 0.965927 0.000000
vn 0.258855 0.965916 0.000000
vn 0.707025 0.707189 0.000000
vn 0.965927 0.258814 0.000000
vn 0.965927 -0.258815 0.000000
vn 0.707107 -0.707107 0.000000
vn 0.258856 -0.965916 0.000000
vn -0.258815 -0.965927 0.000000
vn -0.707107 -0.707107 0.000000
vn -0.965927 -0.258815 0.000000
vn -0.000001 -0.000000 1.000000
vn 0.000001 -0.000000 1.000000
vn 0.000002 -0.000000 1.000000
usemtl wire_085028177
s off
f 1/1/1 4/2/1 3/3/1 2/4/1
f 5/5/2 8/6/2 7/7/2 6/8/2
f 9/9/3 12/10/3 11/11/3 10/12/3
f 13/13/4 16/14/4 15/15/4 14/16/4
f 17/17/5 20/18/5 19/19/5 18/20/5
f 21/21/6 13/13/6 14/16/6 22/22/6
f 1/1/7 6/8/7 7/7/7 4/2/7
f 11/11/8 21/21/8 22/22/8 10/12/8
f 16/14/9 17/17/9 18/20/9 15/15/9
f 23/23/1 24/24/1 19/19/1 20/18/1
f 25/25/2 28/26/2 27/27/2 26/28/2
f 29/29/3 32/30/3 31/31/3 30/32/3
f 33/33/4 36/34/4 35/35/4 34/36/4
f 37/37/5 38/38/5 2/4/5 3/3/5
f 39/39/6 40/40/6 36/34/6 33/33/6
f 26/28/7 27/27/7 24/24/7 23/23/7
f 30/32/8 31/31/8 40/40/8 39/39/8
f 34/36/9 35/35/9 38/38/9 37/37/9
f 41/41/10 44/42/10 43/43/10 42/44/10
f 45/45/11 48/46/11 47/47/11 46/48/11
f 49/49/12 52/50/12 51/51/12 50/52/12
f 53/53/13 56/54/13 55/55/13 54/56/13
f 57/57/14 60/58/14 59/59/14 58/60/14
f 61/61/15 62/62/15 56/54/15 53/53/15
f 46/48/16 47/47/16 44/42/16 41/41/16
f 50/52/17 51/51/17 62/62/17 61/61/17
f 54/63/9 55/64/9 60/65/9 57/66/9
f 63/67/10 64/68/10 58/60/10 59/59/10
f 65/69/11 68/70/11 67/71/11 66/72/11
f 69/73/12 72/74/12 71/75/12 70/76/12
f 73/77/13 76/78/13 75/79/13 74/80/13
f 77/81/14 78/82/14 42/44/14 43/43/14
f 79/83/15 80/84/15 76/78/15 73/77/15
f 66/72/16 67/71/16 64/68/16 63/67/16
f 70/76/17 71/75/17 80/84/17 79/83/17
f 74/85/9 75/86/9 78/87/9 77/88/9
f 81/89/10 84/90/10 83/91/10 82/92/10
f 85/93/11 88/94/11 87/95/11 86/96/11
f 89/97/12 92/98/12 91/99/12 90/100/12
f 93/101/13 96/102/13 95/103/13 94/104/13
f 97/105/14 83/91/14 84/90/14 98/106/14
f 99/107/15 93/101/15 94/104/15 100/108/15
f 88/94/18 81/89/18 82/92/18 87/95/18
f 92/98/17 99/107/17 100/108/17 91/99/17
f 96/109/9 97/110/9 98/111/9 95/112/9
f 101/113/19 104/114/19 103/115/19 102/116/19
f 105/117/20 108/118/20 107/119/20 106/120/20
f 109/121/21 112/122/21 111/123/21 110/124/21
f 113/125/22 116/126/22 115/127/22 114/128/22
f 117/129/23 120/115/23 119/130/23 118/131/23
f 121/132/24 113/125/24 114/128/24 122/133/24
f 108/118/25 101/113/25 102/116/25 107/119/25
f 112/122/26 121/132/26 122/133/26 111/123/26
f 116/126/9 117/129/9 118/131/9 115/127/9
f 123/134/19 119/130/19 120/115/19 124/116/19
f 125/135/20 128/136/20 127/137/20 126/138/20
f 129/139/21 132/140/21 131/141/21 130/142/21
f 133/143/22 136/144/22 135/145/22 134/146/22
f 137/129/23 103/115/23 104/114/23 138/147/23
f 139/148/24 133/143/24 134/146/24 140/149/24
f 128/136/25 123/134/25 124/116/25 127/137/25
f 132/140/26 139/148/26 140/149/26 131/141/26
f 136/144/9 137/129/9 138/147/9 135/145/9
f 42/44/27 104/114/27 101/113/27 41/41/27
f 41/41/27 101/113/27 108/118/27 46/48/27
f 46/48/27 108/118/27 105/117/27 45/45/27
f 85/93/28 106/120/28 107/119/28 88/94/28
f 88/94/28 107/119/28 102/116/28 81/89/28
f 81/89/29 102/116/29 103/115/29 84/90/29
f 84/90/30 103/115/30 137/129/30 98/106/30
f 98/111/30 137/129/30 136/144/30 95/112/30
f 95/103/30 136/144/30 133/143/30 94/104/30
f 94/104/31 133/143/31 139/148/31 100/108/31
f 100/108/28 139/148/28 132/140/28 91/99/28
f 91/99/28 132/140/28 129/139/28 90/100/28
f 72/74/27 130/142/27 131/141/27 71/75/27
f 71/75/32 131/141/32 140/149/32 80/84/32
f 80/84/27 140/149/27 134/146/27 76/78/27
f 76/78/33 134/146/33 135/145/33 75/79/33
f 75/86/33 135/145/33 138/147/33 78/87/33
f 78/82/27 138/147/27 104/114/27 42/44/27
f 50/52/28 112/122/28 109/121/28 49/49/28
f 89/97/27 110/124/27 111/123/27 92/98/27
f 92/98/27 111/123/27 122/133/27 99/107/27
f 99/107/34 122/133/34 114/128/34 93/101/34
f 93/101/35 114/128/35 115/127/35 96/102/35
f 96/109/34 115/127/34 118/131/34 97/110/34
f 97/105/34 118/131/34 119/130/34 83/91/34
f 83/91/32 119/130/32 123/134/32 82/92/32
f 82/92/27 123/134/27 128/136/27 87/95/27
f 87/95/27 128/136/27 125/135/27 86/96/27
f 68/70/28 126/138/28 127/137/28 67/71/28
f 67/71/31 127/137/31 124/116/31 64/68/31
f 64/68/28 124/116/28 120/115/28 58/60/28
f 58/60/30 120/115/30 117/129/30 57/57/30
f 57/66/30 117/129/30 116/126/30 54/63/30
f 54/56/28 116/126/28 113/125/28 53/53/28
f 53/53/28 113/125/28 121/132/28 61/61/28
f 61/61/28 121/132/28 112/122/28 50/52/28
f 141/150/33 144/151/33 143/152/33 142/153/33
f 143/152/27 144/151/27 146/154/27 145/155/27
f 146/154/27 144/151/27 148/156/27 147/157/27
f 149/158/27 150/159/27 144/151/27 141/150/27
f 48/46/28 5/5/28 6/8/28 47/47/28
f 1/1/28 44/42/28 47/47/28 6/8/28
f 2/4/29 43/43/29 44/42/29 1/1/29
f 43/43/36 2/4/36 38/38/36 77/81/36
f 77/88/28 38/38/28 35/35/28 74/85/28
f 74/80/30 35/35/30 36/34/30 73/77/30
f 73/77/29 36/34/29 40/40/29 79/83/29
f 79/83/28 40/40/28 31/31/28 70/76/28
f 70/76/28 31/31/28 32/30/28 69/73/28
f 151/151/29 154/150/29 153/157/29 152/156/29
f 153/157/28 154/150/28 156/155/28 155/154/28
f 156/155/28 154/150/28 158/153/28 157/152/28
f 159/160/28 160/158/28 154/150/28 151/151/28
f 52/50/27 9/9/27 10/12/27 51/51/27
f 51/51/34 10/12/34 22/22/34 62/62/34
f 62/62/33 22/22/33 14/16/33 56/54/33
f 56/54/35 14/16/35 15/15/35 55/55/35
f 55/64/27 15/15/27 18/20/27 60/65/27
f 60/58/33 18/20/33 19/19/33 59/59/33
f 59/59/34 19/19/34 24/24/34 63/67/34
f 63/67/27 24/24/27 27/27/27 66/72/27
f 66/72/27 27/27/27 28/26/27 65/69/27
f 29/29/27 30/32/27 143/161/27 145/162/27
f 30/32/27 39/39/27 142/163/27 143/161/27
f 39/39/27 33/33/27 141/164/27 142/163/27
f 33/33/27 34/36/27 149/165/27 141/164/27
f 34/36/33 37/37/33 150/166/33 149/165/33
f 37/37/34 3/3/34 144/167/34 150/166/34
f 3/3/34 4/2/34 148/168/34 144/167/34
f 4/2/33 7/7/33 147/169/33 148/168/33
f 7/7/27 8/6/27 146/170/27 147/169/27
f 25/25/28 26/28/28 153/171/28 155/172/28
f 26/28/28 23/23/28 152/173/28 153/171/28
f 23/23/29 20/18/29 151/174/29 152/173/29
f 20/18/29 17/17/29 159/175/29 151/174/29
f 17/17/30 16/14/30 160/176/30 159/175/30
f 16/14/30 13/13/30 154/177/30 160/176/30
f 13/13/29 21/21/29 158/178/29 154/177/29
f 21/21/28 11/11/28 157/179/28 158/178/28
f 11/11/28 12/10/28 156/180/28 157/179/28
f 52/50/37 156/180/37 12/10/37 9/9/37
f 155/172/38 156/180/38 28/26/38 25/25/38
f 156/180/39 68/70/39 65/69/39 28/26/39
f 68/70/40 86/96/40 125/135/40 126/138/40
f 156/180/41 90/100/41 86/96/41 68/70/41
f 85/93/40 45/45/40 105/117/40 106/120/40
f 48/46/42 146/170/42 8/6/42 5/5/42
f 45/45/43 85/93/43 146/170/43 48/46/43
f 86/96/44 90/100/44 146/170/44 85/93/44
f 145/162/45 146/170/45 32/30/45 29/29/45
f 146/170/46 72/74/46 69/73/46 32/30/46
f 72/74/40 90/100/40 129/139/40 130/142/40
f 146/170/47 90/100/47 72/74/47
f 156/180/48 49/49/48 89/97/48 90/100/48
f 89/97/40 49/49/40 109/121/40 110/124/40
f 52/50/48 49/49/48 156/180/48
f 161/181/49 164/182/49 163/183/49 162/184/49
f 162/184/50 163/183/50 166/185/50 165/186/50
f 165/186/51 166/185/51 168/187/51 167/188/51
f 167/189/52 168/190/52 170/191/52 169/192/52
f 169/192/53 170/191/53 172/193/53 171/194/53
f 171/194/54 172/193/54 174/195/54 173/196/54
f 173/196/55 174/195/55 176/197/55 175/198/55
f 175/198/56 176/197/56 178/199/56 177/200/56
f 177/200/57 178/199/57 180/201/57 179/202/57
f 179/202/58 180/201/58 182/203/58 181/204/58
f 181/204/59 182/203/59 184/205/59 183/206/59
f 183/206/60 184/205/60 164/182/60 161/181/60
f 163/207/61 184/208/61 168/209/61 166/210/61
f 168/209/62 176/211/62 172/212/62 170/213/62
f 172/212/63 176/211/63 174/214/63
f 176/211/12 184/208/12 180/215/12 178/216/12
f 180/215/12 184/208/12 182/217/12
f 168/209/12 184/208/12 176/211/12
f 164/218/12 184/208/12 163/207/12
